<mxfile host="app.diagrams.net" modified="2023-05-31T07:20:18.806Z" agent="Mozilla/5.0 (Windows NT 10.0; Win64; x64) AppleWebKit/537.36 (KHTML, like Gecko) Chrome/113.0.0.0 Safari/537.36" etag="p1GVPaB6VsCzkVGvI6lN" version="21.3.3" type="github">
  <diagram name="Trang-1" id="Rtv8dVOtGINkOgFMuuK0">
    <mxGraphModel dx="1167" dy="601" grid="1" gridSize="10" guides="1" tooltips="1" connect="1" arrows="1" fold="1" page="1" pageScale="1" pageWidth="2339" pageHeight="3300" math="0" shadow="0">
      <root>
        <mxCell id="0" />
        <mxCell id="1" parent="0" />
        <mxCell id="KmCH8Xh90aq2N9KF85zI-37" style="edgeStyle=orthogonalEdgeStyle;rounded=0;orthogonalLoop=1;jettySize=auto;html=1;exitX=0.5;exitY=0;exitDx=0;exitDy=0;exitPerimeter=0;entryX=0.5;entryY=0;entryDx=0;entryDy=0;entryPerimeter=0;endArrow=block;endFill=0;" edge="1" parent="1" source="KmCH8Xh90aq2N9KF85zI-1" target="KmCH8Xh90aq2N9KF85zI-5">
          <mxGeometry relative="1" as="geometry" />
        </mxCell>
        <mxCell id="KmCH8Xh90aq2N9KF85zI-1" value="Moderator" style="shape=umlActor;verticalLabelPosition=bottom;verticalAlign=top;html=1;outlineConnect=0;" vertex="1" parent="1">
          <mxGeometry x="150" y="100" width="30" height="60" as="geometry" />
        </mxCell>
        <mxCell id="KmCH8Xh90aq2N9KF85zI-2" value="Guest" style="shape=umlActor;verticalLabelPosition=bottom;verticalAlign=top;html=1;outlineConnect=0;" vertex="1" parent="1">
          <mxGeometry x="1030" y="300" width="30" height="60" as="geometry" />
        </mxCell>
        <mxCell id="KmCH8Xh90aq2N9KF85zI-38" style="edgeStyle=orthogonalEdgeStyle;rounded=0;orthogonalLoop=1;jettySize=auto;html=1;exitX=0.5;exitY=0;exitDx=0;exitDy=0;exitPerimeter=0;endArrow=block;endFill=0;" edge="1" parent="1" source="KmCH8Xh90aq2N9KF85zI-3">
          <mxGeometry relative="1" as="geometry">
            <mxPoint x="165.52631578947376" y="180" as="targetPoint" />
            <Array as="points">
              <mxPoint x="165" y="220" />
              <mxPoint x="166" y="220" />
            </Array>
          </mxGeometry>
        </mxCell>
        <mxCell id="KmCH8Xh90aq2N9KF85zI-3" value="Content Manager" style="shape=umlActor;verticalLabelPosition=bottom;verticalAlign=top;html=1;outlineConnect=0;" vertex="1" parent="1">
          <mxGeometry x="150" y="260" width="30" height="60" as="geometry" />
        </mxCell>
        <mxCell id="KmCH8Xh90aq2N9KF85zI-4" value="Admin" style="shape=umlActor;verticalLabelPosition=bottom;verticalAlign=top;html=1;outlineConnect=0;" vertex="1" parent="1">
          <mxGeometry x="150" y="420" width="30" height="60" as="geometry" />
        </mxCell>
        <mxCell id="KmCH8Xh90aq2N9KF85zI-36" style="edgeStyle=orthogonalEdgeStyle;rounded=0;orthogonalLoop=1;jettySize=auto;html=1;entryX=0.5;entryY=0;entryDx=0;entryDy=0;entryPerimeter=0;endArrow=block;endFill=0;strokeWidth=1;" edge="1" parent="1" source="KmCH8Xh90aq2N9KF85zI-5" target="KmCH8Xh90aq2N9KF85zI-2">
          <mxGeometry relative="1" as="geometry">
            <mxPoint x="1045" y="230" as="sourcePoint" />
          </mxGeometry>
        </mxCell>
        <mxCell id="KmCH8Xh90aq2N9KF85zI-5" value="User" style="shape=umlActor;verticalLabelPosition=bottom;verticalAlign=top;html=1;outlineConnect=0;" vertex="1" parent="1">
          <mxGeometry x="1030" y="140" width="30" height="60" as="geometry" />
        </mxCell>
        <mxCell id="KmCH8Xh90aq2N9KF85zI-15" style="rounded=0;orthogonalLoop=1;jettySize=auto;html=1;exitX=0;exitY=0.5;exitDx=0;exitDy=0;endArrow=none;endFill=0;" edge="1" parent="1" source="KmCH8Xh90aq2N9KF85zI-6" target="KmCH8Xh90aq2N9KF85zI-1">
          <mxGeometry relative="1" as="geometry" />
        </mxCell>
        <mxCell id="KmCH8Xh90aq2N9KF85zI-18" style="rounded=0;orthogonalLoop=1;jettySize=auto;html=1;exitX=1;exitY=0.5;exitDx=0;exitDy=0;entryX=0.264;entryY=0.017;entryDx=0;entryDy=0;entryPerimeter=0;dashed=1;dashPattern=8 8;endArrow=classic;endFill=1;" edge="1" parent="1" source="KmCH8Xh90aq2N9KF85zI-6" target="KmCH8Xh90aq2N9KF85zI-14">
          <mxGeometry relative="1" as="geometry" />
        </mxCell>
        <mxCell id="KmCH8Xh90aq2N9KF85zI-24" value="&amp;lt;&amp;lt;include&amp;gt;&amp;gt;" style="edgeLabel;html=1;align=center;verticalAlign=middle;resizable=0;points=[];" vertex="1" connectable="0" parent="KmCH8Xh90aq2N9KF85zI-18">
          <mxGeometry x="0.2769" relative="1" as="geometry">
            <mxPoint as="offset" />
          </mxGeometry>
        </mxCell>
        <mxCell id="KmCH8Xh90aq2N9KF85zI-6" value="Quản lý diễn đàn" style="ellipse;whiteSpace=wrap;html=1;" vertex="1" parent="1">
          <mxGeometry x="280" y="110" width="120" height="40" as="geometry" />
        </mxCell>
        <mxCell id="KmCH8Xh90aq2N9KF85zI-23" style="rounded=0;orthogonalLoop=1;jettySize=auto;html=1;exitX=0;exitY=0.5;exitDx=0;exitDy=0;entryX=1;entryY=0;entryDx=0;entryDy=0;dashed=1;dashPattern=8 8;endArrow=classic;endFill=1;" edge="1" parent="1" source="KmCH8Xh90aq2N9KF85zI-7" target="KmCH8Xh90aq2N9KF85zI-14">
          <mxGeometry relative="1" as="geometry" />
        </mxCell>
        <mxCell id="KmCH8Xh90aq2N9KF85zI-28" value="&amp;lt;&amp;lt;include&amp;gt;&amp;gt;" style="edgeLabel;html=1;align=center;verticalAlign=middle;resizable=0;points=[];" vertex="1" connectable="0" parent="KmCH8Xh90aq2N9KF85zI-23">
          <mxGeometry x="-0.1127" y="1" relative="1" as="geometry">
            <mxPoint as="offset" />
          </mxGeometry>
        </mxCell>
        <mxCell id="KmCH8Xh90aq2N9KF85zI-34" style="rounded=0;orthogonalLoop=1;jettySize=auto;html=1;exitX=1;exitY=0.5;exitDx=0;exitDy=0;endArrow=none;endFill=0;" edge="1" parent="1" source="KmCH8Xh90aq2N9KF85zI-7" target="KmCH8Xh90aq2N9KF85zI-5">
          <mxGeometry relative="1" as="geometry" />
        </mxCell>
        <mxCell id="KmCH8Xh90aq2N9KF85zI-7" value="Thi trắc nghiệm" style="ellipse;whiteSpace=wrap;html=1;" vertex="1" parent="1">
          <mxGeometry x="790" y="190" width="120" height="40" as="geometry" />
        </mxCell>
        <mxCell id="KmCH8Xh90aq2N9KF85zI-21" style="rounded=0;orthogonalLoop=1;jettySize=auto;html=1;exitX=1;exitY=0.5;exitDx=0;exitDy=0;entryX=0.5;entryY=1;entryDx=0;entryDy=0;dashed=1;dashPattern=8 8;endArrow=classic;endFill=1;" edge="1" parent="1" source="KmCH8Xh90aq2N9KF85zI-8" target="KmCH8Xh90aq2N9KF85zI-14">
          <mxGeometry relative="1" as="geometry" />
        </mxCell>
        <mxCell id="KmCH8Xh90aq2N9KF85zI-27" value="&amp;lt;&amp;lt;include&amp;gt;&amp;gt;" style="edgeLabel;html=1;align=center;verticalAlign=middle;resizable=0;points=[];" vertex="1" connectable="0" parent="KmCH8Xh90aq2N9KF85zI-21">
          <mxGeometry x="0.0732" relative="1" as="geometry">
            <mxPoint as="offset" />
          </mxGeometry>
        </mxCell>
        <mxCell id="KmCH8Xh90aq2N9KF85zI-30" style="rounded=0;orthogonalLoop=1;jettySize=auto;html=1;exitX=0;exitY=0.5;exitDx=0;exitDy=0;endArrow=none;endFill=0;" edge="1" parent="1" source="KmCH8Xh90aq2N9KF85zI-8" target="KmCH8Xh90aq2N9KF85zI-4">
          <mxGeometry relative="1" as="geometry" />
        </mxCell>
        <mxCell id="KmCH8Xh90aq2N9KF85zI-8" value="Quản lý người dùng" style="ellipse;whiteSpace=wrap;html=1;" vertex="1" parent="1">
          <mxGeometry x="280" y="430" width="120" height="40" as="geometry" />
        </mxCell>
        <mxCell id="KmCH8Xh90aq2N9KF85zI-22" style="rounded=0;orthogonalLoop=1;jettySize=auto;html=1;exitX=0;exitY=0.5;exitDx=0;exitDy=0;entryX=0.5;entryY=0;entryDx=0;entryDy=0;dashed=1;dashPattern=8 8;endArrow=classic;endFill=1;" edge="1" parent="1" source="KmCH8Xh90aq2N9KF85zI-9" target="KmCH8Xh90aq2N9KF85zI-14">
          <mxGeometry relative="1" as="geometry" />
        </mxCell>
        <mxCell id="KmCH8Xh90aq2N9KF85zI-29" value="&amp;lt;&amp;lt;include&amp;gt;&amp;gt;" style="edgeLabel;html=1;align=center;verticalAlign=middle;resizable=0;points=[];" vertex="1" connectable="0" parent="KmCH8Xh90aq2N9KF85zI-22">
          <mxGeometry x="-0.0686" y="-1" relative="1" as="geometry">
            <mxPoint as="offset" />
          </mxGeometry>
        </mxCell>
        <mxCell id="KmCH8Xh90aq2N9KF85zI-33" style="rounded=0;orthogonalLoop=1;jettySize=auto;html=1;exitX=1;exitY=0.5;exitDx=0;exitDy=0;endArrow=none;endFill=0;" edge="1" parent="1" source="KmCH8Xh90aq2N9KF85zI-9" target="KmCH8Xh90aq2N9KF85zI-5">
          <mxGeometry relative="1" as="geometry" />
        </mxCell>
        <mxCell id="KmCH8Xh90aq2N9KF85zI-9" value="Quản lý diễn đàn" style="ellipse;whiteSpace=wrap;html=1;" vertex="1" parent="1">
          <mxGeometry x="790" y="120" width="120" height="40" as="geometry" />
        </mxCell>
        <mxCell id="KmCH8Xh90aq2N9KF85zI-17" style="rounded=0;orthogonalLoop=1;jettySize=auto;html=1;exitX=0;exitY=0.5;exitDx=0;exitDy=0;endArrow=none;endFill=0;" edge="1" parent="1" source="KmCH8Xh90aq2N9KF85zI-10">
          <mxGeometry relative="1" as="geometry">
            <mxPoint x="180" y="290" as="targetPoint" />
          </mxGeometry>
        </mxCell>
        <mxCell id="KmCH8Xh90aq2N9KF85zI-20" style="rounded=0;orthogonalLoop=1;jettySize=auto;html=1;exitX=1;exitY=0.5;exitDx=0;exitDy=0;entryX=0;entryY=1;entryDx=0;entryDy=0;dashed=1;dashPattern=8 8;endArrow=classic;endFill=1;" edge="1" parent="1" source="KmCH8Xh90aq2N9KF85zI-10" target="KmCH8Xh90aq2N9KF85zI-14">
          <mxGeometry relative="1" as="geometry" />
        </mxCell>
        <mxCell id="KmCH8Xh90aq2N9KF85zI-26" value="&amp;lt;&amp;lt;include&amp;gt;&amp;gt;" style="edgeLabel;html=1;align=center;verticalAlign=middle;resizable=0;points=[];" vertex="1" connectable="0" parent="KmCH8Xh90aq2N9KF85zI-20">
          <mxGeometry x="-0.232" relative="1" as="geometry">
            <mxPoint y="-1" as="offset" />
          </mxGeometry>
        </mxCell>
        <mxCell id="KmCH8Xh90aq2N9KF85zI-10" value="Quản lý đề thi" style="ellipse;whiteSpace=wrap;html=1;" vertex="1" parent="1">
          <mxGeometry x="280" y="320" width="120" height="40" as="geometry" />
        </mxCell>
        <mxCell id="KmCH8Xh90aq2N9KF85zI-16" style="rounded=0;orthogonalLoop=1;jettySize=auto;html=1;exitX=0;exitY=0.5;exitDx=0;exitDy=0;endArrow=none;endFill=0;" edge="1" parent="1" source="KmCH8Xh90aq2N9KF85zI-11" target="KmCH8Xh90aq2N9KF85zI-3">
          <mxGeometry relative="1" as="geometry" />
        </mxCell>
        <mxCell id="KmCH8Xh90aq2N9KF85zI-19" style="rounded=0;orthogonalLoop=1;jettySize=auto;html=1;exitX=1;exitY=0.5;exitDx=0;exitDy=0;entryX=0;entryY=0.5;entryDx=0;entryDy=0;dashed=1;dashPattern=8 8;endArrow=classic;endFill=1;" edge="1" parent="1" source="KmCH8Xh90aq2N9KF85zI-11" target="KmCH8Xh90aq2N9KF85zI-14">
          <mxGeometry relative="1" as="geometry" />
        </mxCell>
        <mxCell id="KmCH8Xh90aq2N9KF85zI-25" value="&amp;lt;&amp;lt;include&amp;gt;&amp;gt;" style="edgeLabel;html=1;align=center;verticalAlign=middle;resizable=0;points=[];" vertex="1" connectable="0" parent="KmCH8Xh90aq2N9KF85zI-19">
          <mxGeometry x="-0.2242" relative="1" as="geometry">
            <mxPoint as="offset" />
          </mxGeometry>
        </mxCell>
        <mxCell id="KmCH8Xh90aq2N9KF85zI-11" value="Quản lý bài học" style="ellipse;whiteSpace=wrap;html=1;" vertex="1" parent="1">
          <mxGeometry x="280" y="240" width="120" height="40" as="geometry" />
        </mxCell>
        <mxCell id="KmCH8Xh90aq2N9KF85zI-31" style="rounded=0;orthogonalLoop=1;jettySize=auto;html=1;exitX=1;exitY=0.5;exitDx=0;exitDy=0;endArrow=none;endFill=0;" edge="1" parent="1" source="KmCH8Xh90aq2N9KF85zI-12" target="KmCH8Xh90aq2N9KF85zI-2">
          <mxGeometry relative="1" as="geometry" />
        </mxCell>
        <mxCell id="KmCH8Xh90aq2N9KF85zI-12" value="Tìm kiếm" style="ellipse;whiteSpace=wrap;html=1;" vertex="1" parent="1">
          <mxGeometry x="790" y="360" width="120" height="40" as="geometry" />
        </mxCell>
        <mxCell id="KmCH8Xh90aq2N9KF85zI-32" style="rounded=0;orthogonalLoop=1;jettySize=auto;html=1;exitX=1;exitY=0.5;exitDx=0;exitDy=0;endArrow=none;endFill=0;" edge="1" parent="1" source="KmCH8Xh90aq2N9KF85zI-13" target="KmCH8Xh90aq2N9KF85zI-2">
          <mxGeometry relative="1" as="geometry" />
        </mxCell>
        <mxCell id="KmCH8Xh90aq2N9KF85zI-13" value="Xem bài học" style="ellipse;whiteSpace=wrap;html=1;" vertex="1" parent="1">
          <mxGeometry x="790" y="280" width="120" height="40" as="geometry" />
        </mxCell>
        <mxCell id="KmCH8Xh90aq2N9KF85zI-14" value="Đăng nhập" style="ellipse;whiteSpace=wrap;html=1;" vertex="1" parent="1">
          <mxGeometry x="530" y="240" width="120" height="40" as="geometry" />
        </mxCell>
        <mxCell id="KmCH8Xh90aq2N9KF85zI-39" style="edgeStyle=orthogonalEdgeStyle;rounded=0;orthogonalLoop=1;jettySize=auto;html=1;exitX=0.5;exitY=0;exitDx=0;exitDy=0;exitPerimeter=0;endArrow=block;endFill=0;" edge="1" parent="1">
          <mxGeometry relative="1" as="geometry">
            <mxPoint x="164.99631578947375" y="340" as="targetPoint" />
            <mxPoint x="164.47" y="420" as="sourcePoint" />
          </mxGeometry>
        </mxCell>
      </root>
    </mxGraphModel>
  </diagram>
</mxfile>
